<svg xmlns="http://www.w3.org/2000/svg" xmlns:xlink="http://www.w3.org/1999/xlink" width="500" zoomAndPan="magnify" viewBox="0 0 375 374.999991" height="500" preserveAspectRatio="xMidYMid meet" version="1.0"><defs><clipPath id="f961f72032"><path d="M 37.5 84.171875 L 321 84.171875 L 321 367.671875 L 37.5 367.671875 Z M 37.5 84.171875 " clip-rule="nonzero"/></clipPath><clipPath id="84c696c203"><path d="M 76.179688 7.414062 L 282.429688 7.414062 L 282.429688 83.914062 L 76.179688 83.914062 Z M 76.179688 7.414062 " clip-rule="nonzero"/></clipPath></defs><rect x="-37.5" width="450" fill="#ffffff" y="-37.499999" height="449.999989" fill-opacity="1"/><rect x="-37.5" width="450" fill="#ffffff" y="-37.499999" height="449.999989" fill-opacity="1"/><g clip-path="url(#f961f72032)"><path fill="#f36125" d="M 179.214844 84.171875 C 101.074219 84.171875 37.5 147.742188 37.5 225.886719 C 37.5 304.03125 101.074219 367.605469 179.214844 367.605469 C 257.359375 367.605469 320.933594 304.03125 320.933594 225.886719 C 320.933594 147.742188 257.359375 84.171875 179.214844 84.171875 Z M 227.46875 228.917969 L 227.46875 236.316406 L 130.960938 236.316406 L 130.960938 228.917969 L 144.382812 228.917969 L 144.382812 225.550781 L 130.960938 225.550781 L 130.960938 142.707031 L 144.382812 142.707031 L 144.382812 139.335938 L 130.960938 139.335938 L 130.960938 132.816406 L 227.46875 132.816406 L 227.46875 139.335938 L 214.050781 139.335938 L 214.050781 142.707031 L 227.46875 142.707031 L 227.46875 225.550781 L 214.050781 225.550781 L 214.050781 228.917969 Z M 127.59375 217.664062 L 41.117188 217.664062 C 41.246094 215.460938 41.425781 213.269531 41.65625 211.101562 L 127.59375 211.101562 Z M 197.546875 123.117188 L 197.546875 129.449219 L 160.886719 129.449219 L 160.886719 123.117188 Z M 230.839844 211.101562 L 316.777344 211.101562 C 317.003906 213.277344 317.1875 215.460938 317.316406 217.664062 L 230.839844 217.664062 Z M 179.214844 87.539062 C 249.351562 87.539062 307.453125 139.996094 316.371094 207.734375 L 230.839844 207.734375 L 230.839844 142.707031 L 238.195312 142.707031 L 238.195312 139.335938 L 230.839844 139.335938 L 230.839844 132.816406 L 238.195312 132.816406 L 238.195312 129.449219 L 200.914062 129.449219 L 200.914062 123.117188 L 206.230469 123.117188 L 206.230469 119.746094 L 152.210938 119.746094 L 152.210938 123.117188 L 157.523438 123.117188 L 157.523438 129.449219 L 120.246094 129.449219 L 120.246094 132.816406 L 127.601562 132.816406 L 127.601562 139.335938 L 120.246094 139.335938 L 120.246094 142.707031 L 127.601562 142.707031 L 127.601562 207.734375 L 42.0625 207.734375 C 50.980469 139.996094 109.082031 87.539062 179.214844 87.539062 Z M 40.960938 221.03125 L 127.59375 221.03125 L 127.59375 225.550781 L 120.238281 225.550781 L 120.238281 228.917969 L 127.59375 228.917969 L 127.59375 236.316406 L 120.238281 236.316406 L 120.238281 239.683594 L 127.59375 239.683594 L 127.59375 354.238281 C 121.566406 351.808594 115.746094 348.964844 110.171875 345.746094 L 110.171875 244.273438 C 110.171875 239.886719 106.601562 236.316406 102.21875 236.316406 C 97.832031 236.316406 94.261719 239.886719 94.261719 244.273438 L 94.261719 335.007812 C 91.359375 332.742188 88.550781 330.359375 85.835938 327.871094 L 85.835938 244.273438 C 85.835938 239.886719 82.265625 236.316406 77.878906 236.316406 C 73.492188 236.316406 69.921875 239.886719 69.921875 244.273438 L 69.921875 310.625 C 66.90625 306.746094 64.089844 302.699219 61.496094 298.5 L 61.496094 244.273438 C 61.496094 239.886719 57.925781 236.316406 53.539062 236.316406 C 49.152344 236.316406 45.582031 239.886719 45.582031 244.273438 L 45.582031 261.773438 C 42.519531 250.328125 40.867188 238.296875 40.867188 225.886719 C 40.867188 224.265625 40.910156 222.648438 40.960938 221.03125 Z M 106.804688 343.722656 C 103.667969 341.785156 100.609375 339.722656 97.636719 337.546875 L 97.636719 244.273438 C 97.636719 241.746094 99.691406 239.683594 102.226562 239.683594 C 104.757812 239.683594 106.8125 241.738281 106.8125 244.273438 L 106.8125 343.722656 Z M 58.132812 292.753906 C 54.558594 286.308594 51.484375 279.550781 48.964844 272.53125 L 48.964844 244.273438 C 48.964844 241.746094 51.019531 239.683594 53.554688 239.683594 C 56.085938 239.683594 58.140625 241.738281 58.140625 244.273438 L 58.140625 292.753906 Z M 72.777344 314.171875 L 73.304688 314.171875 L 73.304688 244.273438 C 73.304688 241.746094 75.359375 239.683594 77.890625 239.683594 C 80.425781 239.683594 82.480469 241.738281 82.480469 244.273438 L 82.480469 324.679688 C 79.0625 321.34375 75.824219 317.839844 72.777344 314.171875 Z M 152.007812 361.542969 C 148.910156 360.921875 145.855469 360.195312 142.839844 359.371094 L 142.839844 258.351562 C 142.839844 255.824219 144.894531 253.765625 147.425781 253.765625 C 149.960938 253.765625 152.015625 255.820312 152.015625 258.351562 L 152.015625 361.542969 Z M 155.375 362.175781 L 155.375 258.351562 C 155.375 253.964844 151.804688 250.394531 147.421875 250.394531 C 143.035156 250.394531 139.464844 253.964844 139.464844 258.351562 L 139.464844 358.410156 C 136.585938 357.546875 133.75 356.589844 130.957031 355.546875 L 130.957031 239.691406 L 227.46875 239.691406 L 227.46875 355.554688 C 224.675781 356.597656 221.839844 357.546875 218.960938 358.414062 L 218.960938 258.351562 C 218.960938 253.964844 215.390625 250.394531 211.007812 250.394531 C 206.621094 250.394531 203.050781 253.964844 203.050781 258.351562 L 203.050781 362.175781 C 195.304688 363.527344 187.339844 364.234375 179.210938 364.234375 C 171.09375 364.234375 163.121094 363.527344 155.375 362.175781 Z M 215.59375 359.371094 C 212.574219 360.195312 209.515625 360.921875 206.425781 361.542969 L 206.425781 258.351562 C 206.425781 255.824219 208.480469 253.765625 211.011719 253.765625 C 213.546875 253.765625 215.601562 255.820312 215.601562 258.351562 L 215.601562 359.371094 Z M 260.648438 337.660156 C 257.675781 339.828125 254.617188 341.882812 251.480469 343.816406 L 251.480469 244.273438 C 251.480469 241.746094 253.535156 239.683594 256.066406 239.683594 C 258.601562 239.683594 260.65625 241.738281 260.65625 244.273438 L 260.65625 337.660156 Z M 275.8125 324.835938 L 275.8125 244.273438 C 275.8125 241.746094 277.867188 239.683594 280.398438 239.683594 C 282.933594 239.683594 284.988281 241.738281 284.988281 244.273438 L 284.988281 314.171875 L 285.660156 314.171875 C 282.5625 317.894531 279.273438 321.453125 275.8125 324.835938 Z M 309.414062 272.679688 C 306.867188 279.746094 303.753906 286.542969 300.144531 293.03125 L 300.144531 244.277344 C 300.144531 241.753906 302.199219 239.691406 304.730469 239.691406 C 307.265625 239.691406 309.320312 241.746094 309.320312 244.277344 L 309.320312 272.6875 L 309.414062 272.6875 Z M 312.679688 262.339844 L 312.679688 244.273438 C 312.679688 239.886719 309.109375 236.316406 304.726562 236.316406 C 300.339844 236.316406 296.769531 239.886719 296.769531 244.273438 L 296.769531 298.742188 C 294.167969 302.921875 291.359375 306.957031 288.339844 310.820312 L 288.339844 244.273438 C 288.339844 239.886719 284.769531 236.316406 280.386719 236.316406 C 276 236.316406 272.429688 239.886719 272.429688 244.273438 L 272.429688 328.019531 C 269.714844 330.5 266.90625 332.871094 264.003906 335.128906 L 264.003906 244.273438 C 264.003906 239.886719 260.433594 236.316406 256.046875 236.316406 C 251.660156 236.316406 248.089844 239.886719 248.089844 244.273438 L 248.089844 345.832031 C 242.566406 349.019531 236.792969 351.828125 230.824219 354.238281 L 230.824219 239.691406 L 238.179688 239.691406 L 238.179688 236.324219 L 230.839844 236.324219 L 230.839844 228.925781 L 238.195312 228.925781 L 238.195312 225.558594 L 230.839844 225.558594 L 230.839844 221.039062 L 317.46875 221.039062 C 317.523438 222.648438 317.566406 224.269531 317.566406 225.894531 C 317.566406 238.5 315.859375 250.71875 312.679688 262.339844 Z M 206.230469 142.707031 L 152.210938 142.707031 L 152.210938 139.335938 L 206.230469 139.335938 Z M 152.203125 225.550781 L 206.222656 225.550781 L 206.222656 228.917969 L 152.203125 228.917969 Z M 163.453125 169.179688 L 163.453125 214.085938 L 194.988281 214.085938 L 194.988281 169.179688 C 194.988281 160.488281 187.914062 153.417969 179.222656 153.417969 C 170.527344 153.417969 163.453125 160.488281 163.453125 169.179688 Z M 191.613281 169.179688 L 191.613281 210.71875 L 166.816406 210.71875 L 166.816406 169.179688 C 166.816406 162.34375 172.378906 156.785156 179.210938 156.785156 C 186.039062 156.785156 191.613281 162.347656 191.613281 169.179688 Z M 218.960938 161.371094 C 218.960938 156.988281 215.390625 153.417969 211.007812 153.417969 C 206.621094 153.417969 203.050781 156.988281 203.050781 161.371094 L 203.050781 214.09375 L 218.957031 214.09375 L 218.957031 161.371094 Z M 215.59375 210.71875 L 206.425781 210.71875 L 206.425781 161.371094 C 206.425781 158.847656 208.480469 156.785156 211.011719 156.785156 C 213.546875 156.785156 215.601562 158.839844 215.601562 161.371094 L 215.601562 210.71875 Z M 155.375 161.371094 C 155.375 156.988281 151.804688 153.417969 147.421875 153.417969 C 143.035156 153.417969 139.464844 156.988281 139.464844 161.371094 L 139.464844 214.09375 L 155.371094 214.09375 L 155.371094 161.371094 Z M 152.007812 210.71875 L 142.839844 210.71875 L 142.839844 161.371094 C 142.839844 158.847656 144.894531 156.785156 147.425781 156.785156 C 149.960938 156.785156 152.015625 158.839844 152.015625 161.371094 L 152.015625 210.71875 Z M 193.296875 258.136719 C 189.960938 258.136719 187.246094 255.421875 187.246094 252.085938 L 187.246094 250.402344 L 171.1875 250.402344 L 171.1875 252.085938 C 171.1875 255.421875 168.472656 258.136719 165.136719 258.136719 L 163.453125 258.136719 L 163.453125 346.242188 L 165.136719 346.242188 C 168.472656 346.242188 171.1875 348.957031 171.1875 352.292969 L 171.1875 353.976562 L 187.246094 353.976562 L 187.246094 352.292969 C 187.246094 348.957031 189.960938 346.242188 193.296875 346.242188 L 194.980469 346.242188 L 194.980469 258.136719 Z M 191.613281 343.03125 C 187.765625 343.730469 184.71875 346.769531 184.027344 350.613281 L 174.398438 350.613281 C 173.699219 346.769531 170.660156 343.722656 166.816406 343.03125 L 166.816406 261.355469 C 170.660156 260.65625 173.707031 257.617188 174.398438 253.769531 L 184.027344 253.769531 C 184.726562 257.617188 187.765625 260.65625 191.613281 261.355469 Z M 191.613281 343.03125 " fill-opacity="1" fill-rule="nonzero"/></g><g clip-path="url(#84c696c203)"><path fill="#f36125" d="M 120.742188 27.609375 L 129.792969 36.789062 L 141.550781 33.375 L 135.621094 44.820312 L 142.507812 54.953125 L 129.785156 52.847656 L 122.273438 62.523438 L 120.347656 49.773438 L 108.824219 45.621094 L 120.355469 39.847656 Z M 179.195312 7.46875 L 186.675781 24.21875 L 204.050781 25.53125 L 190.433594 37.828125 L 194.554688 54.757812 L 178.65625 45.609375 L 163.828125 54.757812 L 167.617188 36.808594 L 154.335938 25.53125 L 172.574219 23.585938 Z M 237.644531 27.609375 L 228.589844 36.789062 L 216.832031 33.375 L 222.761719 44.820312 L 215.878906 54.953125 L 228.601562 52.847656 L 236.109375 62.523438 L 238.035156 49.773438 L 249.558594 45.621094 L 238.03125 39.847656 Z M 276.808594 56.773438 L 267.570312 62.015625 L 259.023438 56.667969 L 261.15625 67.070312 L 253.429688 73.550781 L 263.976562 74.738281 L 267.753906 84.089844 L 272.148438 74.421875 L 282.207031 73.71875 L 274.367188 66.558594 Z M 81.574219 56.773438 L 90.808594 62.015625 L 99.363281 56.667969 L 97.230469 67.070312 L 104.957031 73.550781 L 94.40625 74.738281 L 90.628906 84.089844 L 86.238281 74.421875 L 76.179688 73.71875 L 84.019531 66.558594 Z M 81.574219 56.773438 " fill-opacity="1" fill-rule="evenodd"/></g></svg>